<svg xmlns="http://www.w3.org/2000/svg" id="Layer_1" data-name="Layer 1" viewBox="0 0 145.64 41.8"><defs><style>.cls-1,.cls-2{fill:#059baa}.cls-2{font-size:22px;font-family:HelveticaRounded-Bold,Helvetica Rounded;font-weight:700}.cls-4{fill:#fff}</style></defs><path d="M141.97 26.68h3.67v3.83h-3.67Z" class="cls-1"/><text class="cls-2" transform="translate(41.62 30.51)">u</text><text class="cls-2" transform="translate(56.74 30.51)">e</text><text class="cls-2" transform="translate(71.51 30.51)">r</text><text class="cls-2" transform="translate(83.07 30.51)">y</text><text class="cls-2" transform="translate(109.28 30.51)">U</text><text class="cls-2" transform="translate(128 30.51)">s</text><text class="cls-2" transform="translate(97.54 30.51)">-</text><path d="M51.58 2.25" style="fill:none"/><path d="M78.97 8.46" class="cls-4"/><path d="M284.31 219.13a17.39 17.39 0 0 0 .74-5c0-8.67-6.31-15.68-14.09-15.68-7.41 0-13.47 6.36-14 14.45a13.64 13.64 0 0 1-.09-1.57 14.85 14.85 0 1 1 27.47 7.78Z" style="fill:#054242" transform="translate(-253.28 -192.89)"/><circle cx="18.4" cy="18.4" r="16.9" style="stroke:#059baa;stroke-miterlimit:10;stroke-width:3px;fill:none"/><rect width="16.82" height="3.01" x="279.74" y="226.96" class="cls-1" rx="1.43" transform="rotate(-137.23 123.755 181.608)"/></svg>